<?xml version="1.0" encoding="UTF-8"?>
<svg id="_レイヤー_2" data-name="レイヤー 2" xmlns="http://www.w3.org/2000/svg" viewBox="0 0 157.14 81.28">
  <defs>
    <style>
      .cls-1 {
        fill: #fff;
      }
    </style>
  </defs>
  <g id="_レイヤー_2-2" data-name="レイヤー 2">
    <g>
      <path class="cls-1" d="m99.27,62.86h-26.84v1.92c0,.68-.85,1.02-2.56,1.02-1.13,0-1.7-.28-1.7-.84.24-5.57.36-10.96.36-16.16,0-6.96-.12-11.43-.36-13.41,1.69.39,3.34.88,4.95,1.47h25.52c1.41-.91,2.23-1.36,2.45-1.36.3,0,1.23.39,2.8,1.18.74.41,1.1.69,1.1.84,0,.22-.59.56-1.76,1.02v8.82c0,6.13.12,11.84.36,17.11,0,.68-.87,1.02-2.62,1.02-1.13,0-1.7-.28-1.7-.84v-1.79Zm0-13.84v-11.24h-26.84v11.24h26.84Zm0,12.93v-12.01h-26.84v12.01h26.84Z"/>
      <path class="cls-1" d="m151.59,68.94h-27.79v1.96c0,.88-.83,1.32-2.5,1.32-1.09,0-1.64-.36-1.64-1.08l.3-20.89c0-8.22-.14-13.31-.42-15.28,1.99.58,3.61,1.18,4.86,1.79h26.72c1.33-1.02,2.12-1.53,2.36-1.53.36,0,1.23.43,2.62,1.28.7.38,1.04.72,1.04,1,0,.33-.55.74-1.64,1.25v11.09l.3,20.93c0,.94-.83,1.4-2.5,1.4-1.13,0-1.7-.37-1.7-1.11v-2.13Zm0-22.19v-8.93h-27.79v8.93h27.79Zm0,9.93v-8.84h-27.79v8.84h27.79Zm0,11.18v-10.1h-27.79v10.1h27.79Z"/>
      <path class="cls-1" d="m13.76,75.64l16.35-28.95c3.57-5.75,7.16-11.3,9.27-16.49.75-1.67,1.3-3.45,1.61-5.32.04-.2.08-.41.11-.61h-.02c.13-.98.23-1.97.23-2.98C41.3,9.53,32.06,0,20.65,0S0,9.53,0,21.28c0,5.33,1.92,10.19,5.06,13.92l3.82-4.16c-2.09-2.56-3.34-5.83-3.34-9.39,0-8.22,6.66-14.87,14.87-14.87s15.09,6.66,14.87,14.87c-.29,11.13-33.45,59.63-33.45,59.63h40.58v-5.64H13.76Z"/>
    </g>
  </g>
</svg>