<?xml version="1.0" encoding="UTF-8"?>
<svg id="_レイヤー_2" data-name="レイヤー 2" xmlns="http://www.w3.org/2000/svg" viewBox="0 0 155.75 73.89">
  <defs>
    <style>
      .cls-1 {
        fill: #fff;
      }
    </style>
  </defs>
  <g id="_レイヤー_2-2" data-name="レイヤー 2">
    <g>
      <path class="cls-1" d="m97.88,62.03h-26.84v1.92c0,.68-.85,1.02-2.56,1.02-1.13,0-1.7-.28-1.7-.84.24-5.57.36-10.96.36-16.16,0-6.96-.12-11.43-.36-13.41,1.69.39,3.34.88,4.95,1.47h25.52c1.41-.91,2.23-1.36,2.45-1.36.3,0,1.23.39,2.8,1.18.74.41,1.1.69,1.1.84,0,.22-.59.56-1.76,1.02v8.82c0,6.13.12,11.84.36,17.11,0,.68-.87,1.02-2.62,1.02-1.13,0-1.7-.28-1.7-.84v-1.79Zm0-13.84v-11.24h-26.84v11.24h26.84Zm0,12.93v-12.01h-26.84v12.01h26.84Z"/>
      <path class="cls-1" d="m150.21,68.12h-27.79v1.96c0,.88-.83,1.32-2.5,1.32-1.09,0-1.64-.36-1.64-1.08l.3-20.89c0-8.22-.14-13.31-.42-15.28,1.99.58,3.61,1.18,4.86,1.79h26.72c1.33-1.02,2.12-1.53,2.36-1.53.36,0,1.23.43,2.62,1.28.7.38,1.04.72,1.04,1,0,.33-.55.74-1.64,1.25v11.09l.3,20.93c0,.94-.83,1.4-2.5,1.4-1.13,0-1.7-.37-1.7-1.11v-2.13Zm0-22.19v-8.93h-27.79v8.93h27.79Zm0,9.93v-8.84h-27.79v8.84h27.79Zm0,11.18v-10.1h-27.79v10.1h27.79Z"/>
      <path class="cls-1" d="m26.2,0L6.51,46.49h20.38v-19.71h5.75v19.71h8.43v7.8h-8.43v19.61h-5.75v-19.61H0v-6.75L20.15,0h6.05Z"/>
    </g>
  </g>
</svg>