<?xml version="1.0" encoding="UTF-8"?>
<svg id="_レイヤー_2" data-name="レイヤー 2" xmlns="http://www.w3.org/2000/svg" viewBox="0 0 152.27 66.89">
  <defs>
    <style>
      .cls-1 {
        fill: #fff;
      }
    </style>
  </defs>
  <g id="_レイヤー_2-2" data-name="レイヤー 2">
    <g>
      <path class="cls-1" d="m94.4,57.54h-26.84v1.92c0,.68-.85,1.02-2.56,1.02-1.13,0-1.7-.28-1.7-.84.24-5.57.36-10.96.36-16.16,0-6.96-.12-11.43-.36-13.41,1.69.39,3.34.88,4.95,1.47h25.52c1.41-.91,2.23-1.36,2.45-1.36.3,0,1.23.39,2.8,1.18.74.41,1.1.69,1.1.84,0,.22-.59.56-1.76,1.02v8.82c0,6.13.12,11.84.36,17.11,0,.68-.87,1.02-2.62,1.02-1.13,0-1.7-.28-1.7-.84v-1.79Zm0-13.84v-11.24h-26.84v11.24h26.84Zm0,12.93v-12.01h-26.84v12.01h26.84Z"/>
      <path class="cls-1" d="m146.72,63.62h-27.79v1.96c0,.88-.83,1.32-2.5,1.32-1.09,0-1.64-.36-1.64-1.08l.3-20.89c0-8.22-.14-13.31-.42-15.28,1.99.58,3.61,1.18,4.86,1.79h26.72c1.33-1.02,2.12-1.53,2.36-1.53.36,0,1.23.43,2.62,1.28.7.38,1.04.72,1.04,1,0,.33-.55.74-1.64,1.25v11.09l.3,20.93c0,.94-.83,1.4-2.5,1.4-1.13,0-1.7-.37-1.7-1.11v-2.13Zm0-22.19v-8.93h-27.79v8.93h27.79Zm0,9.93v-8.84h-27.79v8.84h27.79Zm0,11.18v-10.1h-27.79v10.1h27.79Z"/>
      <path class="cls-1" d="m32.45,0v6.02H9.72l-.29,18.95c1.36-.1,2.53-.1,3.21-.1,6.12,0,10.69,1.26,14.48,4.08,5.05,3.59,7.97,9.42,7.97,15.93,0,11.47-9.13,20.02-21.47,20.02-3.89,0-7.68-.78-13.6-2.72l.19-6.22c4.57,1.94,9.72,3.21,13.7,3.21,8.26,0,14.57-6.12,14.57-14.09,0-4.57-2.04-8.84-5.44-11.37-2.82-2.23-6.41-3.11-11.95-3.11-1.94,0-4.86.1-7.97.39L3.3.19l29.15-.19Z"/>
    </g>
  </g>
</svg>