<?xml version="1.0" encoding="UTF-8"?>
<svg id="_レイヤー_2" data-name="レイヤー 2" xmlns="http://www.w3.org/2000/svg" viewBox="0 0 199.08 56.17">
  <defs>
    <style>
      .cls-1 {
        fill: #fff;
      }
    </style>
  </defs>
  <g id="_レイヤー_2-2" data-name="レイヤー 2">
    <g>
      <path class="cls-1" d="m31.11,23.71l-.14,17.32c0,3.89.14,8.15.14,10.03,0,2.07.14,3.71.14,3.71,0,.85-.94,1.34-1.87,1.34-.22,0-.43.06-.72.06-.86,0-1.58-.3-1.58-1.09v-.24c0-.24.07-.79.36-9.6-6.55,2.01-17.71,4.38-22.83,5.59,0,.73-.14,2.31-1.15,2.31-1.44,0-2.81-3.4-3.46-5.35h.5c1.01,0,1.37,0,10.01-1.28v-22.67c-3.89.06-7.63.12-9.14.3-.58-.12-1.3-1.95-1.3-2.67v-.06c3.6.3,17.71.61,22.83.61h34.71c.22-.3,2.81-3.53,3.6-3.53.65,0,5.9,3.22,5.9,4.19,0,.49-.43,1.03-1.51,1.03H31.11Zm-13.25-6.56c0,.36.07.85.07,1.09-.14,1.64-2.02,1.64-2.59,1.64-.94,0-1.66-.3-1.66-1.28v-.24c0-.06.14-.67.22-1.76.07-1.22.22-2.49.22-3.71v-6.02c0-2.31-.22-4.07-.65-6.08.94.18,3.53,1.28,5.33,2.13h29.67c1.94-2.01,2.52-2.31,2.74-2.31.07,0,4.25,1.7,4.25,3.04,0,.49-.5,1.03-2.3,1.52v7.35c0,.73.22,3.4.22,4.01,0,.67.07,1.46.07,1.64,0,.12,0,1.4-2.38,1.4-1.3,0-1.8-.36-1.8-1.09,0-.12.07-.73.07-1.34h-31.47Zm9.72,6.56h-6.26c-1.15,0-4.03,0-7.2.06v5.41h13.46v-5.47Zm-13.46,7.11v5.65h13.46c0-1.76.07-3.77.07-5.65h-13.54Zm13.46,7.29h-13.46v7.84c4.68-.73,9.65-1.64,13.39-2.49,0-.85.07-1.64.07-2.43v-2.92Zm21.82-27.23h-31.54l-.07,2.67c0,.3.07,1.09.07,1.88h31.47c0-.61.07-1.52.07-2.25v-2.31Zm0-6.26h-31.54v4.32h31.54v-4.32Zm8.57,23.34c.86.43,4.03,2.43,4.03,3.4,0,.67-.86,1.15-2.66,1.34-2.02,4.13-4.75,8.45-8.57,12.34,4.1,3.1,9.43,5.53,16.35,6.44.22,0,.36.3.36.61,0,.43-.22.79-.58.85-1.22.06-2.23.49-3.6,1.4-.22.12-.43.36-.72.36-.14,0-6.98-1.52-13.75-7.84-7.42,6.69-14.83,8.81-15.19,8.81-.43,0-1.01-.67-1.01-1.15,0-.12.07-.24.22-.3,5.83-2.31,10.44-5.65,14.04-9.3-4.32-4.62-6.98-9.79-7.92-13.55-1.94.06-3.74.18-4.61.3-.5-.36-1.37-2.01-1.44-2.61,2.95.36,12.46.43,12.46.43h10.3c.14-.18.43-.49.79-.73l.86-.73c.07-.06.22-.12.36-.12h.14l.14.06Zm-12.75,3.28s-2.02,0-4.32.06c.86,3.4,3.31,7.9,7.56,11.85,3.74-4.26,6.05-8.63,7.13-11.91h-10.37Z"/>
      <path class="cls-1" d="m73.44,51.97c-.5,0-1.15-.3-1.15-.67,0-.12,0-.18.07-.24,3.31-5.05,5.62-13.98,5.62-17.14v-.73c1.73.06,6.05,1.34,6.05,2.37,0,.61-1.22,1.09-2.59,1.15-2.16,6.93-6.34,15.26-7.99,15.26Zm12.82-24.01c-3.6.61-7.27,1.09-9.36,1.34-.07,1.15-.43,2.07-1.01,2.07-1.3,0-2.66-4.13-2.81-4.98.72.06,1.51.06,2.3.06,2.02,0,4.39-.18,4.68-.18,3.6-3.46,11.67-12.22,13.54-16.17.43-.85.65-1.58.94-2.49,2.38.67,5.9,2.31,5.9,3.34,0,.91-2.09.91-2.23.91-.36,0-.65-.06-1.01-.06-3.02,3.28-9.43,10.09-14.47,14.28,5.04-.36,10.58-.91,13.32-1.4-.86-1.46-1.87-2.67-2.95-3.95-.07-.06-.07-.12-.07-.24,0-.3.58-.73,1.01-.73.5,0,7.49,5.77,7.49,8.87,0,1.7-1.66,2.37-2.02,2.37-.72,0-1.37-.61-1.66-1.82-.29-1.15-.72-2.25-1.15-3.22-1.37.36-4.03.85-7.06,1.4v14.71c0,4.62,0,6.63.14,10.21,0,.61.07,1.52.07,2.25,0,.55-.5,1.46-2.74,1.46-.79,0-1.51-.24-1.51-1.15v-.12c.29-4.19.65-8.39.65-12.64v-14.1Zm6.41-25.04c0,.3-.22,1.09-2.66,1.09h-.36c-2.74,3.53-6.62,7.72-8.71,9.66,3.02,1.7,3.67,2.74,3.67,4.01,0,1.15-.58,2.19-1.44,2.19-.58,0-1.22-.36-1.8-1.34-1.73-2.92-4.97-4.92-7.85-6.69-.14-.06-.22-.24-.22-.36,0-.36.43-.85.86-.85.58,0,3.31,1.15,5.33,2.25,3.31-3.89,6.55-9.3,7.13-12.89.07,0,6.05,1.7,6.05,2.92Zm4.9,42.31c-.43-4.13-2.52-8.39-4.9-11.55-.07-.06-.07-.12-.07-.18,0-.3.65-.55,1.15-.55,1.3,0,7.63,8.08,7.63,11.43,0,1.95-1.3,3.04-2.38,3.04-.72,0-1.3-.61-1.44-2.19ZM127.16,7.48c.5-.43,1.15-.97,1.73-1.4.14-.06.29-.12.43-.12s4.32,1.95,4.32,3.22c0,.67-.94,1.15-2.66,1.22-2.45,4.26-5.47,8.39-9.29,12.16,4.75,4.44,10.95,7.36,18.94,8.51.22,0,.29.24.29.49,0,.36-.14.79-.5.85-1.8.49-2.59.79-3.53,1.64-.22.18-.36.3-.58.3s-9.94-3.65-16.27-10.21c-9.72,8.87-19.87,11.79-19.87,11.79-.43,0-1.01-.61-1.01-1.09,0-.18.07-.3.29-.43,7.63-3.1,13.83-7.48,18.65-12.46-2.3-2.86-4.1-6.08-5.69-9.85-5.18,8.02-11.23,12.16-11.81,12.16-.5,0-1.01-.43-1.01-.79,0-.12.07-.24.22-.36,5.26-4.32,10.01-10.94,12.39-18.05.36-1.15.5-2.37.72-3.53,2.09,0,6.12.73,6.12,1.76,0,.06,0,.91-2.59,1.15-.43.91-.86,1.95-1.37,2.98l12.1.06Zm-.65,46.44c-3.38-3.53-14.4-7.96-19.37-9-.22-.06-.29-.12-.29-.3,0-.36.58-.91,1.01-.91,2.38,0,19.8,3.71,21.89,7.72.36.73.58,1.52.58,2.13,0,1.4-.72,1.82-1.37,1.82s-1.44-.43-2.45-1.46Zm-1.66-12.95c-2.95-3.46-5.62-4.62-12.39-7.29-.22-.12-.36-.24-.36-.43,0-.43.65-.91,1.15-.91.65,0,11.95,3.1,14.54,6.44.5.61.72,1.34.72,2.01,0,1.09-.65,1.82-1.51,1.82-.65,0-1.3-.67-2.16-1.64Zm-10.73-31.79l-.65,1.09c1.58,3.83,3.6,7.23,6.12,10.09,3.17-3.59,5.62-7.42,7.42-11.18h-12.89Z"/>
      <path class="cls-1" d="m192.6,49.42h-29.88v2.01c0,.3.07,1.4.07,1.64-.14,1.58-1.66,1.7-2.59,1.7-1.01,0-1.94-.3-1.94-1.4v-.18c0-.06.14-1.03.22-2.13.07-2.19.22-5.53.22-7.23l.07-32.76c0-2.37-.29-5.17-.72-7.23,1.44.36,3.89,1.28,5.62,2.13h28.01c1.51-1.58,2.38-2.25,2.66-2.25.36,0,4.75,2.19,4.75,3.34,0,.49-.5,1.09-2.38,1.58v34.95c0,.73.22,6.75.22,7.42.07.67.07,1.82.07,2.01,0,.49-.5,1.4-2.81,1.4-1.22,0-1.66-.36-1.66-1.09,0-.24.07-2.25.07-2.86v-1.03Zm.07-41.7h-29.95l-.07,17.93h30.03V7.72Zm0,19.69h-30.03v20.24h29.96c0-1.34.07-2.74.07-3.22v-17.02Z"/>
    </g>
  </g>
</svg>