<?xml version="1.0" encoding="UTF-8"?>
<svg id="_レイヤー_2" data-name="レイヤー 2" xmlns="http://www.w3.org/2000/svg" viewBox="0 0 379.17 105.16">
  <defs>
    <style>
      .cls-1 {
        fill: #fff;
      }

      .cls-2 {
        fill: #909090;
      }
    </style>
  </defs>
  <g id="_レイヤー_2-2" data-name="レイヤー 2">
    <g>
      <g>
        <path class="cls-2" d="m94.42,1.19v68.37c0,3.39-3.12,6.13-6.97,6.13s-6.97-2.74-6.97-6.13V1.19h-6.09v68.14c0,6.34,5.84,11.48,13.05,11.48s13.06-5.14,13.06-11.48V1.19h-6.09Z"/>
        <path class="cls-2" d="m49.91.2c-6.96,0-12.6,5.14-12.6,11.48v8.92s-.02.05-.05.05h-.86c-12.17,0-22.56,9.46-22.96,21.62-.42,12.72,9.76,23.16,22.38,23.16.49,0,.96-.03,1.44-.07.03,0,.06.02.06.05v24.9s.04.06.07.05l5.77-2.41s.03-.03.03-.05v-23.71s.01-.04.04-.05c2.81-.99,5.37-2.49,7.54-4.44.02-.02.02-.04,0-.06-.36-.33-3.63-3.35-3.95-3.64-.02-.01-.04-.01-.05,0-1.07.84-2.25,1.54-3.5,2.1-.04.02-.06,0-.06-.04,0-1.53,0-30.11,0-31.44,0-.03.02-.05.05-.05h13.34s.05.02.05.05v55.62s.04.06.07.05l5.77-2.41s.03-.03.03-.05V11.68C62.51,5.34,56.87.2,49.91.2Zm-12.6,59.22l-.07.07c-8.81.32-16.15-6.29-16.99-14.82-.98-9.93,6.94-18.09,16.91-18.09h.1s.05.02.05.05v32.78Zm5.93-38.77s-.05-.02-.05-.05v-9.15c0-3.39,3.01-6.13,6.73-6.13s6.73,2.74,6.73,6.13v9.15s-.02.05-.05.05h-13.34Z"/>
        <path class="cls-2" d="m116.13,1.52c-1.51,0-3,.08-4.47.24v79.14c1.47.15,2.96.24,4.47.24,22.68,0,41.07-17.82,41.07-39.81S138.81,1.52,116.13,1.52Zm4.38,74.33c-1.11,0-2.21-.07-3.3-.21V7.02c1.08-.13,2.18-.21,3.3-.21,16.73,0,30.29,15.45,30.29,34.52s-13.56,34.52-30.29,34.52Z"/>
        <rect class="cls-2" x="165.48" width="5.83" height="79.97"/>
        <rect class="cls-2" x="208.19" width="5.83" height="79.97"/>
        <polygon class="cls-2" points="202.14 .2 192.5 .2 186.67 .2 177.03 .2 177.03 6.03 186.67 6.03 186.67 79.97 192.5 79.97 192.5 6.03 202.14 6.03 202.14 .2"/>
        <polygon class="cls-2" points="334.91 .1 334.91 12.44 317.79 2.55 313.54 .1 311.96 .1 311.96 5.92 311.96 80.06 317.79 80.06 317.79 9.29 334.91 19.17 334.91 80.06 340.74 80.06 340.74 22.54 340.74 15.8 340.74 .1 334.91 .1"/>
        <path class="cls-2" d="m263.34.24c-22.44,0-40.62,18.19-40.62,40.62s18.19,40.62,40.62,40.62,40.62-18.19,40.62-40.62S285.77.24,263.34.24Zm0,76.15c-19.62,0-35.53-15.91-35.53-35.53s15.91-35.53,35.53-35.53,35.53,15.91,35.53,35.53-15.91,35.53-35.53,35.53Z"/>
      </g>
      <g>
        <g>
          <path class="cls-1" d="m29.09,71.73c3.83-.25,6.81-.47,8.94-.64,1.21-.1,2.01-.23,2.4-.41,1.09-.49,1.76-.73,1.99-.73,1.33,0,2.67.3,4.01.91.96.43,1.44,1.08,1.44,1.96,0,.41-.2.76-.59,1.05-.29.22-.6.32-.91.32-.7,0-1.79-.04-3.25-.12-2.7-.12-5.01-.18-6.94-.18-2.03,0-4.38.08-7.03.23.04,2.19.13,6.47.26,12.86.02,1.11.08,3.6.18,7.47.04,1.82.06,3.01.06,3.57,0,1.6-.24,2.77-.73,3.52-.31.53-.91,1.02-1.79,1.46-.74.39-1.37.59-1.88.59-.63,0-1.1-.44-1.44-1.32-.12-.39-.43-.73-.94-1.03-.78-.51-2.49-1.14-5.13-1.9-.39-.1-.59-.42-.59-.97,0-.39.19-.59.59-.59.21,0,.52.04.91.12,2.52.47,4.65.7,6.39.7.53,0,.85-.05.97-.15.12-.1.18-.33.18-.7.02-1.7.03-3.56.03-5.6,0-4.02-.02-9.03-.06-15.03-2.48,3.71-6.3,7.85-11.46,12.42-4.22,3.77-8.46,6.95-12.71,9.55-.57.27-.97.41-1.2.41-.53,0-.79-.19-.79-.59,0-.43.26-.83.79-1.2,4.39-3.12,8.59-6.69,12.6-10.69,4.32-4.32,7.85-8.46,10.61-12.42-6.62.8-11.4,1.46-14.33,1.96-.61.08-1.21.32-1.82.73-.49.27-.99.41-1.49.41-1.45,0-2.93-.88-4.45-2.64-1.04-1.21-1.55-2.31-1.55-3.31,0-.43.18-.64.53-.64.29,0,.71.28,1.26.85,1.33,1.23,2.53,1.85,3.6,1.85s2.29-.08,3.78-.23c7.97-.76,13.46-1.28,16.46-1.55,0-4.34-.04-7.4-.12-9.2-.08-.94-.26-1.55-.56-1.85-.61-.53-1.81-.87-3.6-1.03-.35-.06-.53-.24-.53-.56,0-.19.14-.43.41-.7.6-.6,1.39-.91,2.34-.91,1.15,0,2.59.38,4.31,1.14,1.48.63,2.23,1.37,2.23,2.23,0,.43-.29.95-.88,1.55-.23.23-.38.86-.44,1.88-.04,1.11-.06,3.49-.06,7.12Z"/>
          <path class="cls-1" d="m103.24,81.17c0,.92-.68,1.38-2.05,1.38l-8.26-.23c-7.19,0-15.45.38-24.79,1.14-1.62.14-2.7.4-3.22.79-.45.31-1.09.47-1.93.47-1.11,0-2.35-1.01-3.72-3.02-.96-1.39-1.44-2.52-1.44-3.4,0-.64.16-.97.47-.97.33,0,.69.26,1.08.79,1.23,1.52,2.55,2.29,3.96,2.29,2.01,0,4.78-.12,8.29-.35,8.89-.57,16.06-.89,21.53-.97,1.37,0,2.4-.21,3.11-.62.57-.31,1.17-.47,1.82-.47.55,0,1.31.2,2.29.59,1.91.84,2.87,1.7,2.87,2.58Z"/>
          <path class="cls-1" d="m139.37,76.54c-4.41.33-8.38.81-11.89,1.44-1.66.31-2.7.6-3.11.85-.43.27-.94.41-1.52.41-1.05,0-2.21-.6-3.46-1.79-1.33-1.19-1.99-2.19-1.99-2.99,0-.68.16-1.03.47-1.03.16,0,.34.08.56.23,1.56,1.31,2.92,1.96,4.07,1.96.88,0,1.86-.06,2.93-.18,3.32-.37,8.22-.83,14.71-1.38l13.51-1.14c1.25-.12,2.11-.32,2.58-.62.6-.39,1.15-.59,1.64-.59,1.19,0,2.53.42,4.01,1.26.96.57,1.44,1.21,1.44,1.93,0,.84-.46,1.26-1.38,1.26-.49,0-1.22-.05-2.2-.15-.9-.08-1.61-.13-2.14-.15-.94-.04-1.97-.06-3.11-.06s-2.2.02-3.13.06c-2.5.04-5.52.18-9.05.41,1.8,1.07,2.7,1.97,2.7,2.7,0,.31-.12.63-.35.97-.39.49-.63.91-.73,1.26-1.07,4.51-3.13,8.87-6.18,13.07-3.26,4.38-7.12,7.88-11.57,10.52-.41.23-.78.35-1.11.35-.45,0-.67-.24-.67-.73,0-.29.19-.59.59-.88,4.2-3.26,7.56-6.92,10.08-10.99,2.4-3.77,4.1-7.72,5.1-11.87.16-.68.23-1.29.23-1.82,0-.96-.33-1.74-1-2.34Z"/>
          <path class="cls-1" d="m131.63,62.88c.76,0,2.42-.08,4.98-.23,3.03-.29,5.76-.63,8.2-1.03,1.62-.25,2.74-.52,3.37-.79.86-.35,1.58-.53,2.17-.53,1.13,0,2.01.2,2.64.59.88.59,1.32,1.19,1.32,1.82,0,.78-.61,1.24-1.82,1.38-4.04.37-9.7.83-16.96,1.38-1.68.16-2.96.23-3.84.23-1.45,0-2.74-.46-3.9-1.38-1.45-1.17-2.17-2.13-2.17-2.87,0-.57.22-.85.67-.85.12,0,.37.16.76.47,1.54,1.21,3.07,1.82,4.57,1.82Z"/>
          <path class="cls-1" d="m198.93,81.11c-4.98,5.39-10.23,9.72-15.76,12.98-.59.35-1.01.53-1.26.53-.2,0-.36-.12-.5-.35-.12-.18-.18-.34-.18-.5,0-.21.22-.49.67-.82,4.32-3.09,8.71-6.99,13.18-11.72,2.89-3.05,5.41-6.1,7.56-9.17.53-.72.79-1.36.79-1.9,0-.62-.62-1.23-1.85-1.82-.45-.21-.67-.43-.67-.64,0-.45.64-.67,1.93-.67.92,0,2.09.5,3.52,1.49,1.41.92,2.11,1.78,2.11,2.58,0,.61-.3,1.01-.91,1.2-.61.2-1.14.58-1.61,1.14-1.02,1.21-2.9,3.29-5.65,6.24,1.72,1.19,2.58,2.05,2.58,2.58,0,.2-.05.42-.15.67-.1.25-.15.41-.15.47-.12.59-.2,1.5-.23,2.75-.04,1-.06,2.17-.06,3.52,0,1.43.02,2.94.06,4.54.04,1.88.06,4.71.06,8.5,0,1.41-.5,2.11-1.49,2.11-.59,0-1.08-.42-1.49-1.26-.57-1.11-.85-2.11-.85-2.99,0-.37.1-.75.29-1.14.18-.37.29-1.07.35-2.11.02-.43.08-2.72.18-6.88.04-1.93.06-3.99.06-6.18,0-1.72-.18-2.76-.53-3.13Z"/>
          <path class="cls-1" d="m235.54,75.89c-.39-.21-.59-.5-.59-.85,0-.39.3-.59.91-.59,1.68,0,3.56.46,5.65,1.38,2.83,1.25,4.25,2.67,4.25,4.25s-.7,2.4-2.11,2.4c-.74,0-1.52-.58-2.34-1.73-1.46-1.97-3.39-3.59-5.77-4.86Zm7.88,19.98c.53,0,1.35-.3,2.46-.91,5.8-3.09,11.68-6.94,17.64-11.57,4.75-3.73,8.91-7.47,12.48-11.22.7-.76,1.12-1.14,1.26-1.14.21,0,.42.09.62.26.2.16.29.33.29.53,0,.22-.22.63-.67,1.26-2.62,3.77-6.82,8.13-12.6,13.07-4.96,4.22-10.72,8.38-17.29,12.48-.49.29-.89.67-1.2,1.14-.49.8-1.08,1.2-1.79,1.2-.88,0-2.06-.78-3.54-2.34-1.52-1.6-2.29-3.11-2.29-4.51,0-1.04.21-1.55.62-1.55.31,0,.64.3,1,.91.37.59.88,1.13,1.52,1.64.61.51,1.1.76,1.49.76Zm-.5-32.34c-.31-.23-.47-.47-.47-.7,0-.41.3-.62.91-.62,1.64,0,3.57.64,5.8,1.93,2.4,1.35,3.6,2.78,3.6,4.31,0,.74-.25,1.33-.76,1.76-.39.35-.85.53-1.38.53-.66,0-1.29-.42-1.88-1.26-1.43-2.23-3.37-4.21-5.83-5.95Z"/>
          <path class="cls-1" d="m315.34,85.91c.25-2.99.43-5.3.53-6.94,0-.45-.22-.67-.67-.67-3.52.12-8.85.58-16,1.38-1.05.1-1.76.25-2.11.47-.35.23-.65.35-.91.35-.66,0-1.58-.58-2.75-1.73-1-1-1.49-1.95-1.49-2.87,0-.6.14-.91.41-.91.2,0,.42.12.67.35,1.11,1.19,2.17,1.79,3.16,1.79.21,0,.64-.03,1.29-.09.68-.04,1.18-.07,1.49-.09,4.47-.37,9.59-.68,15.35-.94.39,0,.79-.19,1.2-.56.55-.43.97-.64,1.26-.64.49,0,1.31.46,2.46,1.38,1.07.86,1.61,1.54,1.61,2.05,0,.33-.26.69-.79,1.08-.55.43-.84.85-.88,1.26l-1.99,16.17c1.45.35,2.17,1,2.17,1.93,0,.76-.4,1.14-1.2,1.14-.02,0-.78-.04-2.29-.12-.51-.04-1.35-.06-2.52-.06-4.47,0-9.17.38-14.09,1.14-1.31.18-2.11.37-2.4.59-.2.2-.39.29-.59.29-.66,0-1.61-.54-2.84-1.61-1.19-1.05-1.79-2.07-1.79-3.05,0-.49.14-.73.41-.73.2,0,.4.1.62.29,1.09,1.15,2.17,1.73,3.22,1.73s1.98-.04,2.67-.12c5.53-.57,10.76-.96,15.7-1.17.33-3.01.62-5.91.85-8.7-5.43.33-10.08.72-13.95,1.17-1.31.2-2.15.38-2.52.56-.08.04-.19.11-.32.21-.27.22-.52.32-.73.32-.66,0-1.59-.54-2.78-1.61-1.11-1.05-1.67-1.99-1.67-2.81,0-.53.14-.79.41-.79.16,0,.4.14.73.41,1.04.92,1.97,1.38,2.81,1.38.41,0,1.33-.06,2.75-.18,5.1-.41,10.26-.76,15.5-1.05Z"/>
          <path class="cls-1" d="m340.76,66.69c-.35-.21-.53-.47-.53-.76,0-.45.22-.67.67-.67.33,0,.66.04,1,.12,2.3.47,4.51,1.51,6.62,3.13,2.03,1.6,3.05,3.26,3.05,4.98,0,1.52-.63,2.29-1.9,2.29-.9.04-1.66-.55-2.29-1.76-1.7-3.2-3.91-5.64-6.62-7.32Zm4.89,27.69c.51,0,1.41-.38,2.7-1.14,4.96-3.03,10.18-7.05,15.64-12.07,4.9-4.49,9.38-9.38,13.45-14.65.29-.35.57-.53.82-.53.61,0,.91.22.91.67,0,.29-.12.64-.35,1.05-3.24,5.35-7.57,10.69-12.98,16.03-3.91,3.93-9.02,8.27-15.35,13.04-.8.59-1.3,1.12-1.49,1.61-.33.68-.85,1.03-1.55,1.03-1.02,0-2.31-.76-3.9-2.29-1.64-1.64-2.46-2.96-2.46-3.96,0-.8.18-1.2.53-1.2.21,0,.48.16.79.47,1.46,1.29,2.55,1.93,3.25,1.93Z"/>
        </g>
        <rect class="cls-1" x="166.63" y="59.99" width="4.45" height="4.45" transform="translate(5.47 137.62) rotate(-45)"/>
        <rect class="cls-1" x="178.44" y="59.99" width="4.45" height="4.45" transform="translate(8.93 145.97) rotate(-45)"/>
      </g>
    </g>
  </g>
</svg>